<svg width="505" height="489" viewBox="0 0 658 637" fill="none" xmlns="http://www.w3.org/2000/svg">
    <path d="M136.927 45.1563L204.897 601.364C209.4 638.494 257.843 649.921 278.427 618.615L550.323 206.655C564.179 185.673 555.628 157.246 532.492 147.44L192.608 3.25887C164.038 -8.83815 133.135 14.437 136.927 45.1563Z" fill="#FFCF00"/>
    <path d="M0 318.356C0 411.42 75.4079 486.913 168.501 486.913C175.685 486.913 182.759 486.463 189.687 485.542L148.81 150.968C65.0338 160.773 0 231.952 0 318.356Z" fill="#4CAC33"/>
    <path d="M337.095 318.337C337.095 225.257 261.595 149.845 168.538 149.845C161.865 149.845 155.32 150.23 148.848 150.95L189.706 485.524C272.845 475.134 337.095 404.291 337.095 318.337Z" fill="#32529F"/>
</svg>
